<svg xmlns="http://www.w3.org/2000/svg" viewBox="0 0 512 512" width="64" height="64">
    <style>
        tspan { white-space:pre }
        .shp0 { fill: #713708 }
        .shp1 { fill: #994c0f }
        .shp2 { fill: #fe318f }
        .shp3 { fill: #fd0f7f }
        .shp4 { fill: #1bd9de }
        .shp5 { fill: #cae8f9 }
        .shp6 { fill: #e1e4fb }
        .shp7 { fill: #b7e0f6 }
        .shp8 { fill: #c5c9f7 }
    </style>
    <path id="Layer" class="shp0"
          d="M278.03 404.64L256.19 426.48C250.15 432.52 240.38 432.52 234.34 426.48C228.3 420.45 228.3 410.67 234.34 404.64L256.19 382.79C262.21 376.76 262.21 366.97 256.19 360.94L236.1 340.86C230.06 334.82 230.06 325.05 236.1 319.01C242.14 312.97 251.91 312.97 257.94 319.01L278.03 339.1C296.1 357.17 296.1 386.56 278.03 404.64Z"/>
    <path id="Layer" class="shp1"
          d="M310.8 502.95L310.8 502.95C298.74 515.02 279.17 515.02 267.11 502.95L157.87 393.71L201.57 350.02L310.8 459.25C322.87 471.32 322.87 490.88 310.8 502.95Z"/>
    <path id="Layer" class="shp2"
          d="M157 261.75L224.73 329.48L223.41 371.87L146.95 448.33C128.82 466.46 99.1 466.03 80.97 447.89L37.27 404.2C19.36 386.28 19.58 357.23 37.71 339.09L114.18 262.63L157 261.75Z"/>
    <path id="Layer" class="shp3"
          d="M190.64 295.4L224.72 329.48L223.41 371.87L146.95 448.33C128.81 466.46 99.1 466.03 80.97 447.89L59.56 426.48L190.64 295.4Z"/>
    <g id="Layer">
        <path id="Layer" class="shp4"
              d="M348.99 61.8C340.47 61.81 333.55 54.89 333.55 46.35L333.54 15.45C333.54 6.91 340.45 0 348.98 0C357.51 -0.01 364.43 6.91 364.43 15.45L364.44 46.35C364.44 54.88 357.53 61.8 348.99 61.8Z"/>
        <path id="Layer" class="shp4"
              d="M472.58 154.49L441.68 154.48C433.14 154.48 426.22 147.56 426.23 139.03C426.23 130.5 433.14 123.59 441.68 123.59L472.58 123.6C481.11 123.6 488.04 130.52 488.03 139.04C488.03 147.58 481.11 154.49 472.58 154.49Z"/>
        <path id="Layer" class="shp4"
              d="M452.81 33.23C458.93 39.35 458.93 48.96 452.81 55.08L420.04 87.85C413.92 93.97 404.31 93.97 398.19 87.85C392.08 81.73 392.08 72.12 398.19 66L430.97 33.23C437.08 27.11 446.69 27.11 452.81 33.23Z"/>
    </g>
    <path id="Layer" class="shp5"
          d="M267.11 66L420.04 218.93C424.41 223.3 429.87 269.4 435.55 270.27L392.51 279.23C328.72 291.9 268.2 327.08 227.13 368.15L223.41 371.87L114.18 262.63L117.89 258.91C161.15 215.65 193.05 158.41 206.15 92.87L215.11 48.09L267.11 66Z"/>
    <path id="Layer" class="shp6"
          d="M146.95 339.09C153.06 345.21 153.06 354.82 146.95 360.94L125.1 382.79C118.98 388.91 109.37 388.91 103.25 382.79C97.13 376.67 97.13 367.06 103.25 360.94L125.1 339.1C131.22 332.98 140.83 332.98 146.95 339.09Z"/>
    <path id="Layer" class="shp7"
          d="M343.57 142.47L420.04 218.93C424.41 223.3 429.87 269.4 435.55 270.27L392.51 279.23C328.72 291.9 268.2 327.08 227.13 368.15L223.42 371.87L168.8 317.25L343.57 142.47Z"/>
    <path id="Layer" class="shp8"
          d="M146.95 339.09C153.06 345.21 153.06 354.82 146.95 360.94L125.1 382.79C118.98 388.91 109.37 388.91 103.25 382.79L146.95 339.09Z"/>
    <path id="Layer" class="shp2"
          d="M267.11 22.31L463.74 218.93C475.75 230.95 475.75 250.61 463.74 262.63C462.43 263.94 460.68 264.81 458.93 265.69C451.94 270.5 443.64 272.24 435.55 270.28C429.87 269.4 424.41 267 420.04 262.63L223.41 66C218.39 60.98 215.99 54.64 215.11 48.09C214.24 41.53 215.55 34.98 218.83 29.08C220.35 26.68 221.45 24.27 223.41 22.31C235.43 10.29 255.09 10.29 267.11 22.31Z"/>
    <path id="Layer" class="shp3"
          d="M365.42 120.62L463.74 218.93C475.75 230.95 475.75 250.61 463.74 262.63C462.42 263.94 460.68 264.81 458.93 265.69C451.94 270.49 443.64 272.24 435.55 270.27C429.87 269.4 424.41 267 420.04 262.63L321.73 164.31L365.42 120.62Z"/>
    <g id="Layer">
    </g>
    <g id="Layer">
    </g>
    <g id="Layer">
    </g>
    <g id="Layer">
    </g>
    <g id="Layer">
    </g>
    <g id="Layer">
    </g>
    <g id="Layer">
    </g>
    <g id="Layer">
    </g>
    <g id="Layer">
    </g>
    <g id="Layer">
    </g>
    <g id="Layer">
    </g>
    <g id="Layer">
    </g>
    <g id="Layer">
    </g>
    <g id="Layer">
    </g>
    <g id="Layer">
    </g>
</svg>