<svg xmlns="http://www.w3.org/2000/svg" viewBox="0 0 64 64" width="64" height="64">
    <style>
        tspan { white-space:pre }
        .shp0 { fill: #cf9e76 }
        .shp1 { fill: #b4dd7f }
        .shp2 { fill: #ff826e }
        .shp3 { fill: #fcd770 }
        .shp4 { fill: #fc6e51 }
        .shp5 { fill: #4fc1e9 }
        .shp6 { fill: #f0d0b4 }
        .shp7 { fill: #000000 }
    </style>
    <path id="Layer" class="shp0" d="M37.5 52L38.5 56L25.5 56L26.5 52L37.5 52Z"/>
    <path id="Layer" class="shp1"
          d="M50 50C43.36 50 38 44.64 38 38C38 31.36 43.36 26 50 26C56.64 26 62 31.36 62 38C62 44.64 56.64 50 50 50Z"/>
    <path id="Layer" class="shp1"
          d="M14 26C7.36 26 2 20.64 2 14C2 7.36 7.36 2 14 2C20.64 2 26 7.36 26 14C26 20.64 20.64 26 14 26Z"/>
    <path id="Layer" class="shp0"
          d="M42.3 47.21L46 62L40 62L38.5 56L37.5 52L35.9 45.6L35.9 45.59C37.25 45.31 38.55 44.88 39.79 44.32C40.12 44.86 40.5 45.37 40.91 45.84C41.34 46.33 41.8 46.79 42.3 47.21Z"/>
    <path id="Layer" class="shp0"
          d="M28.1 45.6L26.5 52L25.5 56L24 62L18 62L22.62 43.51C24.3 44.48 26.15 45.19 28.1 45.6L28.1 45.6Z"/>
    <path id="Layer" class="shp2"
          d="M38.15 36.12C38.05 36.73 38 37.36 38 38C38 40.32 38.66 42.49 39.79 44.32C38.55 44.88 37.25 45.31 35.9 45.59C34.64 45.86 33.34 46 32 46C30.67 46 29.36 45.86 28.1 45.6C26.15 45.19 24.3 44.48 22.62 43.51C16.88 40.26 13 34.08 13 27C13 26.65 13.03 26.31 13.05 25.96C13.36 25.99 13.68 26 14 26C16.92 26 19.59 24.96 21.67 23.23C21.25 24.41 21 25.68 21 27C21 33.08 25.92 38 32 38C34.28 38 36.39 37.3 38.15 36.12Z"/>
    <path id="Layer" class="shp2"
          d="M50.95 26.04C50.64 26.01 50.32 26 50 26C47.35 26 44.9 26.86 42.91 28.31C42.96 27.89 43 27.44 43 27C43 20.92 38.08 16 32 16C29.41 16 27.05 16.9 25.17 18.39C25.71 17.03 26 15.55 26 14C26 12.34 25.67 10.77 25.06 9.33C27.21 8.48 29.55 8 32 8C42.17 8 50.44 15.99 50.95 26.04Z"/>
    <path id="Layer" class="shp3"
          d="M43 27C43 27.44 42.96 27.89 42.91 28.31C40.41 30.14 38.65 32.92 38.15 36.12C36.39 37.3 34.28 38 32 38C25.92 38 21 33.08 21 27C21 25.68 21.25 24.41 21.67 23.23C22.18 22.81 22.65 22.34 23.09 21.84C23.97 20.83 24.68 19.66 25.17 18.39C27.05 16.9 29.41 16 32 16C38.08 16 43 20.92 43 27Z"/>
    <path id="Layer" class="shp4"
          d="M32 32C29.23 32 27 29.77 27 27C27 24.23 29.23 22 32 22C34.77 22 37 24.23 37 27C37 29.77 34.77 32 32 32Z"/>
    <path id="Layer" class="shp5"
          d="M13.05 25.96C9.8 25.71 6.92 24.16 4.91 21.84L4.92 21.83C6.5 18.39 9.97 16 14 16C18.03 16 21.5 18.39 23.08 21.83L23.09 21.84C22.65 22.34 22.18 22.81 21.67 23.23C19.59 24.96 16.92 26 14 26C13.68 26 13.36 25.99 13.05 25.96L13.05 25.96Z"/>
    <path id="Layer" class="shp3"
          d="M59.09 45.84C56.89 48.39 53.63 50 50 50C47.07 50 44.38 48.95 42.3 47.21C41.8 46.79 41.34 46.33 40.91 45.84L40.92 45.83C42.5 42.39 45.97 40 50 40C54.03 40 57.5 42.39 59.08 45.83L59.09 45.84Z"/>
    <path id="Layer" class="shp6"
          d="M14 16C11.79 16 10 14.21 10 12C10 9.79 11.79 8 14 8C16.21 8 18 9.79 18 12C18 14.21 16.21 16 14 16Z"/>
    <path id="Layer" class="shp6"
          d="M50 40C47.79 40 46 38.21 46 36C46 33.79 47.79 32 50 32C52.21 32 54 33.79 54 36C54 38.21 52.21 40 50 40Z"/>
    <path id="Layer" fill-rule="evenodd" class="shp7"
          d="M26 27C26 23.69 28.69 21 32 21C35.31 21 38 23.69 38 27C38 30.31 35.31 33 32 33C28.69 33 26 30.31 26 27ZM28 27C28 29.21 29.79 31 32 31C34.21 31 36 29.21 36 27C36 24.79 34.21 23 32 23C29.79 23 28 24.79 28 27Z"/>
    <path id="Layer" class="shp7" d="M1 61L3 61L3 63L1 63L1 61Z"/>
    <path id="Layer" class="shp7" d="M61 61L63 61L63 63L61 63L61 61Z"/>
    <path id="Layer" fill-rule="evenodd" class="shp7"
          d="M43.9 49.47L46.78 61L59 61L59 63L5 63L5 61L17.22 61L21.48 43.98C15.8 40.44 12 34.16 12 27C12 26.94 12.01 26.89 12.01 26.83C5.78 25.87 1 20.49 1 14C1 6.83 6.83 1 14 1C19.04 1 23.41 3.89 25.57 8.1C27.66 7.38 29.81 7 32 7C42.37 7 50.93 14.91 51.87 25.15C58.15 26.06 63 31.47 63 38C63 45.17 57.17 51 50 51C47.8 51 45.72 50.45 43.9 49.47ZM22.56 23.76C22.19 24.82 22 25.91 22 27C22 32.51 26.49 37 32 37C33.87 37 35.67 36.47 37.25 35.49C37.86 32.39 39.57 29.69 41.96 27.81C41.98 27.52 42 27.25 42 27C42 21.49 37.51 17 32 17C29.81 17 27.73 17.7 25.99 19.03C25.21 20.86 24.03 22.47 22.56 23.76ZM57.86 45.68C56.29 42.83 53.28 41 50 41C46.72 41 43.71 42.83 42.14 45.68C44.14 47.73 46.92 49 50 49C53.08 49 55.86 47.72 57.86 45.68ZM61 38C61 31.93 56.06 27 50 27C43.93 27 39 31.93 39 38C39 40.21 39.66 42.27 40.79 44C42.16 41.91 44.19 40.36 46.52 39.58C45.58 38.67 45 37.4 45 36C45 33.24 47.24 31 50 31C52.76 31 55 33.24 55 36C55 37.4 54.41 38.67 53.48 39.58C55.81 40.36 57.84 41.91 59.21 44C60.34 42.27 61 40.21 61 38ZM50 39C51.65 39 53 37.65 53 36C53 34.35 51.65 33 50 33C48.35 33 47 34.35 47 36C47 37.65 48.35 39 50 39ZM32 9C30.08 9 28.18 9.33 26.34 9.94C26.76 11.22 27 12.58 27 14C27 14.75 26.92 15.48 26.8 16.19C28.41 15.41 30.17 15 32 15C38.45 15 43.7 20.11 43.98 26.49C45.74 25.57 47.73 25.03 49.85 25.01C48.85 15.95 41.22 9 32 9ZM14 3C7.93 3 3 7.93 3 14C3 16.21 3.66 18.27 4.79 20C6.16 17.91 8.19 16.36 10.52 15.58C9.58 14.67 9 13.4 9 12C9 9.24 11.24 7 14 7C16.76 7 19 9.24 19 12C19 13.4 18.41 14.67 17.48 15.58C19.81 16.36 21.84 17.91 23.21 20C24.34 18.27 25 16.21 25 14C25 7.93 20.06 3 14 3ZM14 15C15.65 15 17 13.65 17 12C17 10.35 15.65 9 14 9C12.35 9 11 10.35 11 12C11 13.65 12.35 15 14 15ZM6.14 21.68C8.14 23.73 10.92 25 14 25C17.08 25 19.86 23.73 21.86 21.68C20.29 18.83 17.28 17 14 17C10.72 17 7.71 18.82 6.14 21.68ZM14 27C14 36.92 22.07 45 32 45C34.19 45 36.33 44.58 38.38 43.79C37.51 42.05 37 40.08 37 38C37 37.97 37.01 37.94 37.01 37.9C35.44 38.62 33.74 39 32 39C25.38 39 20 33.62 20 27C20 26.49 20.04 25.98 20.11 25.47C18.29 26.44 16.21 27 14 27ZM25.28 61L38.72 61L37.72 57L26.28 57L25.28 61ZM37.22 55L36.72 53L27.28 53L26.78 55L37.22 55ZM36.22 51L35.15 46.72C34.11 46.89 33.06 47 32 47C30.93 47 29.88 46.89 28.85 46.73L27.78 51L36.22 51ZM19.28 61L23.22 61L26.89 46.31C25.64 45.98 24.43 45.53 23.29 44.97L19.28 61ZM41.4 47.72C40.66 47.07 40 46.34 39.42 45.53C38.66 45.84 37.89 46.09 37.11 46.3L40.78 61L44.72 61L41.4 47.72Z"/>
    <path id="Layer" class="shp7"
          d="M24.82 41.3C25.45 41.62 26.11 41.9 26.78 42.13L27.44 40.24C26.85 40.04 26.27 39.79 25.72 39.51L24.82 41.3Z"/>
    <path id="Layer" class="shp7"
          d="M35.2 42.68L34.8 40.72C34.19 40.84 33.57 40.93 32.95 40.97L33.09 42.96C33.79 42.92 34.5 42.82 35.2 42.68L35.2 42.68Z"/>
    <path id="Layer" class="shp7"
          d="M28.84 42.69C29.54 42.83 30.25 42.92 30.96 42.97L31.08 40.97C30.46 40.93 29.84 40.85 29.24 40.73L28.84 42.69Z"/>
    <path id="Layer" class="shp7"
          d="M43.2 18.6L44.8 17.4C44.23 16.64 43.58 15.92 42.88 15.27L41.52 16.73C42.13 17.3 42.7 17.93 43.2 18.6Z"/>
    <path id="Layer" class="shp7"
          d="M32 13C35.06 13 37.96 13.97 40.4 15.8L41.6 14.2C38.81 12.11 35.49 11 32 11C30.93 11 29.85 11.11 28.8 11.32L29.2 13.28C30.12 13.09 31.06 13 32 13L32 13Z"/>
</svg>