<svg xmlns="http://www.w3.org/2000/svg" viewBox="0 0 497 497" width="64" height="64">
    <style>
        tspan { white-space:pre }
        .shp0 { fill: #1b74d6 }
        .shp1 { fill: #1e8aff }
        .shp2 { fill: #ffeac3 }
        .shp3 { fill: #ffd17e }
        .shp4 { fill: #ffb739 }
        .shp5 { fill: #ffffff }
        .shp6 { fill: #dbebff }
    </style>
    <g id="Layer">
        <path id="Layer" class="shp0"
              d="M106.27 358.91L10.98 486.01C25.63 500.66 49.37 500.66 64.02 486.01L148.69 401.34L106.27 358.91Z"/>
        <path id="Layer" class="shp1"
              d="M127.48 380.13L42.8 464.8C28.16 479.44 13.91 488.94 10.98 486.01C-3.66 471.37 -3.66 447.63 10.98 432.98L95.66 348.31L127.48 380.13Z"/>
        <path id="Layer" class="shp2" d="M106.22 358.89L159.24 305.87L191.06 337.68L138.03 390.71L106.22 358.89Z"/>
        <path id="Layer" class="shp3"
              d="M143.34 279.42L129.48 311.82C128.27 314.64 128.9 317.91 131.07 320.07L176.93 365.93C179.09 368.1 182.36 368.73 185.18 367.52L217.58 353.66L143.34 279.42Z"/>
        <path id="Layer" class="shp4"
              d="M159.3 390.73L138.09 369.52L116.87 390.73L138.09 411.95C143.94 417.81 153.44 417.81 159.3 411.95C165.16 406.09 165.16 396.59 159.3 390.73Z"/>
        <path id="Layer" class="shp3"
              d="M138.09 390.73C143.94 384.88 143.94 375.38 138.09 369.52L106.27 337.7C100.41 331.84 90.91 331.84 85.05 337.7C79.2 343.56 79.2 353.06 85.05 358.91L116.87 390.73C122.73 396.59 132.23 396.59 138.09 390.73Z"/>
        <path id="Layer" class="shp4"
              d="M308.5 377C204.26 377 120 292.74 120 188.5C120 84.26 204.26 0 308.5 0C412.74 0 497 84.26 497 188.5C497 292.74 412.74 377 308.5 377Z"/>
        <path id="Layer" class="shp5"
              d="M308.5 347C220.85 347 150 276.15 150 188.5C150 100.85 220.85 30 308.5 30C396.15 30 467 100.85 467 188.5C467 276.15 396.15 347 308.5 347Z"/>
        <path id="Layer" class="shp0"
              d="M308.5 317C237.44 317 180 259.56 180 188.5C180 117.44 237.44 60 308.5 60C379.56 60 437 117.44 437 188.5C437 259.56 379.56 317 308.5 317Z"/>
        <path id="Layer" class="shp6"
              d="M362 203.5L362 173.5L405.86 173.5C399.39 131.11 365.89 97.61 323.5 91.14L323.5 135L293.5 135L293.5 91.14C251.11 97.61 217.61 131.11 211.13 173.5L255 173.5L255 203.5L211.13 203.5C217.61 245.89 251.11 279.39 293.5 285.87L293.5 242L323.5 242L323.5 285.87C365.89 279.39 399.39 245.89 405.86 203.5L362 203.5Z"/>
    </g>
</svg>