<svg xmlns="http://www.w3.org/2000/svg" viewBox="0 0 25 25" width="25" height="25">
    <style>
        tspan { white-space:pre }
        .shp0 { fill: #000000 }
    </style>
    <g id="Layer">
        <path id="Layer" fill-rule="evenodd" class="shp0"
              d="M0 3.88C0 2.77 0.9 1.88 2 1.88L22.75 1.88C23.85 1.88 24.75 2.77 24.75 3.88C24.75 4.98 23.85 5.88 22.75 5.88L2 5.88C0.9 5.88 0 4.98 0 3.88ZM24.75 12.38C24.75 13.48 23.85 14.38 22.75 14.38L2 14.38C0.9 14.38 0 13.48 0 12.38C0 11.27 0.9 10.38 2 10.38L22.75 10.38C23.86 10.38 24.75 11.27 24.75 12.38ZM24.75 20.88C24.75 21.98 23.85 22.88 22.75 22.88L2 22.88C0.9 22.88 0 21.98 0 20.88C0 19.77 0.9 18.88 2 18.88L22.75 18.88C23.86 18.88 24.75 19.77 24.75 20.88Z"/>
    </g>
    <g id="Layer">
    </g>
    <g id="Layer">
    </g>
    <g id="Layer">
    </g>
    <g id="Layer">
    </g>
    <g id="Layer">
    </g>
    <g id="Layer">
    </g>
    <g id="Layer">
    </g>
    <g id="Layer">
    </g>
    <g id="Layer">
    </g>
    <g id="Layer">
    </g>
    <g id="Layer">
    </g>
    <g id="Layer">
    </g>
    <g id="Layer">
    </g>
    <g id="Layer">
    </g>
    <g id="Layer">
    </g>
</svg>