<svg xmlns="http://www.w3.org/2000/svg" viewBox="0 0 124 124" width="124" height="124">
    <style>
        tspan { white-space:pre }
        .shp0 { fill: #f16521 }
    </style>
    <g id="Layer">
        <path id="Layer" class="shp0"
              d="M121.7 57.68L83 26.88C79 23.78 73 26.58 73 31.68L73 41.98C73 45.28 70.8 48.18 67.5 48.18L6 48.18C2.7 48.18 0 50.58 0 53.98L0 70.18C0 73.38 2.7 76.18 6 76.18L67.5 76.18C70.8 76.18 73 78.78 73 82.08L73 92.38C73 97.38 79 100.18 82.9 97.08L121.5 67.08C124.7 64.78 124.8 60.08 121.7 57.68Z"/>
    </g>
    <g id="Layer">
    </g>
    <g id="Layer">
    </g>
    <g id="Layer">
    </g>
    <g id="Layer">
    </g>
    <g id="Layer">
    </g>
    <g id="Layer">
    </g>
    <g id="Layer">
    </g>
    <g id="Layer">
    </g>
    <g id="Layer">
    </g>
    <g id="Layer">
    </g>
    <g id="Layer">
    </g>
    <g id="Layer">
    </g>
    <g id="Layer">
    </g>
    <g id="Layer">
    </g>
    <g id="Layer">
    </g>
</svg>