<svg xmlns="http://www.w3.org/2000/svg" viewBox="0 0 124 124" width="124" height="124">
    <style>
        tspan { white-space:pre }
        .shp0 { fill: #000000 }
    </style>
    <g id="Layer">
        <path id="Layer" class="shp0"
              d="M121.33 10.93L112.83 2.53C110.53 0.23 106.73 0.23 104.33 2.53L61.93 44.93L18.73 1.73C16.42 -0.58 12.63 -0.58 10.23 1.73L1.73 10.23C-0.58 12.53 -0.58 16.33 1.73 18.73L44.83 61.83L2.53 104.33C0.23 106.63 0.23 110.43 2.53 112.83L11.03 121.33C13.33 123.63 17.13 123.63 19.53 121.33L61.93 78.93L104.33 121.33C106.63 123.63 110.42 123.63 112.83 121.33L121.33 112.83C123.63 110.53 123.63 106.73 121.33 104.33L78.83 61.93L121.22 19.53C123.63 17.13 123.63 13.32 121.33 10.93Z"/>
    </g>
    <g id="Layer">
    </g>
    <g id="Layer">
    </g>
    <g id="Layer">
    </g>
    <g id="Layer">
    </g>
    <g id="Layer">
    </g>
    <g id="Layer">
    </g>
    <g id="Layer">
    </g>
    <g id="Layer">
    </g>
    <g id="Layer">
    </g>
    <g id="Layer">
    </g>
    <g id="Layer">
    </g>
    <g id="Layer">
    </g>
    <g id="Layer">
    </g>
    <g id="Layer">
    </g>
    <g id="Layer">
    </g>
</svg>